<svg width="20" height="20" viewBox="0 0 20 20" fill="none" xmlns="http://www.w3.org/2000/svg">
<path d="M0.5 6C0.5 2.96243 2.96243 0.5 6 0.5H14C17.0376 0.5 19.5 2.96243 19.5 6V14C19.5 17.0376 17.0376 19.5 14 19.5H6C2.96243 19.5 0.5 17.0376 0.5 14V6Z" fill="#F3F3F3" stroke="#D2D2D2"/>
<path d="M3 9C3 5.68629 5.68629 3 9 3H11C14.3137 3 17 5.68629 17 9V11C17 14.3137 14.3137 17 11 17H9C5.68629 17 3 14.3137 3 11V9Z" fill="#F3F3F3"/>
<path d="M14.6666 6.5L8.24998 12.9167L5.33331 10" stroke="#D2D2D2" stroke-width="2" stroke-linecap="round" stroke-linejoin="round"/>
</svg>
